# xmcd
#
# Track frame offsets:
#	150
#	19959
#	37523
#	48180
#	64130
#	87176
#	105529
#	128358
#	159939
#	177583
#	193893
#	224981
#	256439
#	279966
#
# Disc length: 4063 seconds
#
# Revision: 0
# Processed by: cddbd v1.4PL0 Copyright (c) Steve Scherf et al.
# Submitted via: audiograbber 1.81.03
#
DISCID=be0fdd0e
DTITLE=Kyran Geraghty - Kyran Geraghty - Fifty One Years of My Life...
DYEAR=2001
DGENRE=Stimmungsmusik
TTITLE0=Lady in Black
TTITLE1=The Wild Rover
TTITLE2=Mercedes Benz
TTITLE3=Past the Point of Rescue
TTITLE4=The Fields of Athenry
TTITLE5=Dirty Old Town
TTITLE6=What's Up?
TTITLE7=The Bog
TTITLE8=Country Roads
TTITLE9=Marmor, Stein und Eisen Bricht
TTITLE10=Whiskey In The Jar
TTITLE11=Proud Mary
TTITLE12=American Pie
TTITLE13=Pretty Women - Get Back
EXTD=
EXTT0=
EXTT1=
EXTT2=
EXTT3=
EXTT4=
EXTT5=
EXTT6=
EXTT7=
EXTT8=
EXTT9=
EXTT10=
EXTT11=
EXTT12=
EXTT13=
PLAYORDER=
